<?xml version="1.0" encoding="iso-8859-1"?>

<!DOCTYPE svg PUBLIC "-//W3C//DTD SVG 1.1//EN" "http://www.w3.org/Graphics/SVG/1.1/DTD/svg11.dtd">
<!-- Uploaded to: SVG Repo, www.svgrepo.com, Generator: SVG Repo Mixer Tools -->
<svg version="1.1" id="_x36_" xmlns="http://www.w3.org/2000/svg" xmlns:xlink="http://www.w3.org/1999/xlink" 
	 viewBox="0 0 512 512"  xml:space="preserve">
<g>
	<rect style="fill:#6C665C;" width="30.364" height="457.98"/>
	<rect x="15.186" y="332.475" style="fill:#6C665C;" width="47.854" height="20.062"/>
	<rect y="258.258" style="fill:#6C665C;" width="65.356" height="20.053"/>
	<rect x="15.186" y="183.974" style="fill:#6C665C;" width="47.854" height="20.062"/>
	<rect y="109.684" style="fill:#6C665C;" width="65.356" height="20.135"/>
	<rect x="15.186" y="35.472" style="fill:#6C665C;" width="47.854" height="20.062"/>
	<path style="fill:#6C665C;" d="M29.227,447.344L18.592,457.98L6.576,470.077l-4.222,4.222C0.893,472.513,0,470.321,0,467.885
		v-20.541H29.227z"/>
	<path style="fill:#685F4C;" d="M2.319,474.278c1.818,2.149,4.527,3.518,7.55,3.518H512v-30.435H29.236L2.319,474.278z"/>
	<path style="fill:#8ACDC5;" d="M195.356,406.244c0,7.953,6.487,14.44,14.439,14.44h51.424c7.953,0,14.439-6.486,14.439-14.44
		v-99.466l-80.302,45.759V406.244z"/>
	<path style="fill:#E1DF2B;" d="M298.973,333.987v35v37.294c0,7.919,6.479,14.398,14.399,14.398h37.292h0h14.159
		c7.919,0,14.398-6.48,14.398-14.398v-72.3v-86.216l-80.249,45.729V333.987z"/>
	<path style="fill:#DA7471;" d="M402.56,234.466v125.241v46.574c0,3.697,1.424,7.066,3.734,9.623
		c2.639,2.922,6.441,4.775,10.665,4.775h51.452c7.919,0,14.398-6.48,14.398-14.398v-46.574V339.39V188.737L402.56,234.466z"/>
	<path style="fill:#8CC33B;" d="M106.197,420.678h51.452c7.92,0,14.399-6.479,14.399-14.398v-40.46l-79.37,45.226
		C94.663,416.629,99.956,420.678,106.197,420.678z"/>
	<polygon style="fill:#8ACDC5;" points="275.635,279.669 275.635,270.889 195.356,270.889 195.356,352.537 275.658,306.778 
		275.658,279.692 	"/>
	<polygon style="fill:#E1DF2B;" points="298.973,184.176 298.973,293.493 379.222,247.764 379.222,184.176 	"/>
	<polygon style="fill:#DA7471;" points="482.809,50.989 402.56,50.989 402.56,234.466 482.809,188.737 	"/>
	<path style="fill:#8CC33B;" d="M172.048,242.063v-57.888h-57.887H91.799v151.107v70.998c0,1.678,0.345,3.266,0.879,4.766
		l79.37-45.226v-30.538V242.063z"/>
	<polygon style="opacity:0.13;fill:#FEFDF0;" points="275.635,279.669 275.635,270.889 195.356,270.889 195.356,352.537 
		275.658,306.778 275.658,279.692 	"/>
	<polygon style="opacity:0.13;fill:#FEFDF0;" points="298.973,184.176 298.973,293.493 379.222,247.764 379.222,184.176 	"/>
	<polygon style="opacity:0.13;fill:#FEFDF0;" points="482.809,50.989 402.56,50.989 402.56,234.466 482.809,188.737 	"/>
	<path style="opacity:0.13;fill:#FEFDF0;" d="M172.048,242.063v-57.888h-57.887H91.799v151.107v70.998
		c0,1.678,0.345,3.266,0.879,4.766l79.37-45.226v-30.538V242.063z"/>
</g>
</svg>