<?xml version="1.0" encoding="iso-8859-1"?>
<!-- Uploaded to: SVG Repo, www.svgrepo.com, Generator: SVG Repo Mixer Tools -->
<svg height="54px" width="54px" version="1.1" id="Layer_1" xmlns="http://www.w3.org/2000/svg" xmlns:xlink="http://www.w3.org/1999/xlink" 
	 viewBox="0 0 512 512" xml:space="preserve">
<polygon style="fill:#FFDB56;" points="116.91,503.56 155.183,503.56 155.183,256.538 116.91,214.221 78.636,256.538 78.636,503.56 
	"/>
<path style="fill:#FBA806;" d="M118.048,215.48v288.08H79.775c0,0-1.072,0-1.139,0l0,0h38.273h38.273V256.538
	C155.182,256.538,120.192,217.85,118.048,215.48z"/>
<polygon style="fill:#F77935;" points="258.456,503.56 296.729,503.56 296.729,338.683 258.456,296.366 220.184,338.683 
	220.184,503.56 "/>
<polygon style="fill:#D9510D;" points="258.381,296.45 258.381,503.56 258.456,503.56 296.729,503.56 296.729,338.683 
	258.456,296.366 "/>
<polygon style="fill:#894BA2;" points="400.004,503.56 438.277,503.56 438.277,137.365 400.004,95.047 361.731,137.365 
	361.731,503.56 "/>
<path style="fill:#763794;" d="M400.429,503.56h37.847V137.365c0,0-37.014-40.925-37.847-41.846V503.56z"/>
<path d="M9.002,110.422c4.662,0,8.44-3.778,8.44-8.44V8.44c0-4.662-3.778-8.44-8.44-8.44s-8.44,3.778-8.44,8.44v93.543
	C0.563,106.643,4.34,110.422,9.002,110.422z"/>
<path d="M502.998,495.121h-56.282V137.363c0-2.092-0.776-4.11-2.181-5.661l-38.274-42.316c-1.6-1.768-3.873-2.778-6.26-2.778
	s-4.66,1.009-6.26,2.778l-38.273,42.316c-1.403,1.552-2.181,3.569-2.181,5.661v83.841c0,4.662,3.778,8.44,8.44,8.44
	c4.662,0,8.44-3.778,8.44-8.44v-80.59L400,107.629l29.834,32.985v354.507H370.17V255.15c0-4.662-3.778-8.44-8.44-8.44
	c-4.662,0-8.44,3.778-8.44,8.44v239.97h-48.122V338.683c0-2.092-0.776-4.11-2.181-5.661l-38.273-42.316
	c-1.6-1.768-3.873-2.778-6.26-2.778s-4.66,1.009-6.26,2.778l-38.274,42.316c-1.403,1.552-2.181,3.569-2.181,5.661v156.438h-48.122
	V256.538c0-2.092-0.776-4.11-2.181-5.661l-38.273-42.316c-1.6-1.768-3.873-2.778-6.26-2.778c-2.387,0-4.66,1.009-6.26,2.778
	l-38.267,42.315c-1.403,1.552-2.181,3.569-2.181,5.661v63.112c0,4.662,3.778,8.44,8.44,8.44c4.662,0,8.44-3.778,8.44-8.44v-59.861
	l29.833-32.985l29.833,32.985v235.333H87.077V353.596c0-4.662-3.778-8.44-8.44-8.44s-8.44,3.778-8.44,8.44v141.525H17.442v-359.38
	c0-4.662-3.778-8.44-8.44-8.44s-8.44,3.778-8.44,8.44v367.82c0,4.662,3.778,8.44,8.44,8.44h69.635h76.545h65.001h76.546h65.002
	h76.546h64.721c4.662,0,8.44-3.778,8.44-8.44S507.66,495.121,502.998,495.121z M228.623,495.121V341.933l29.834-32.985
	l29.833,32.985v153.188H228.623z"/>
</svg>