<?xml version="1.0" encoding="iso-8859-1"?>
<!-- Uploaded to: SVG Repo, www.svgrepo.com, Generator: SVG Repo Mixer Tools -->
<!DOCTYPE svg PUBLIC "-//W3C//DTD SVG 1.1//EN" "http://www.w3.org/Graphics/SVG/1.1/DTD/svg11.dtd">
<svg fill="#000000" height="54px" width="54px" version="1.1" id="Capa_1" xmlns="http://www.w3.org/2000/svg" xmlns:xlink="http://www.w3.org/1999/xlink" 
	 viewBox="0 0 373.678 373.678" xml:space="preserve">
<path d="M34.479,96.524c11.519,5.077,26.635,7.873,42.565,7.873c15.932,0,31.049-2.796,42.567-7.873
	c18.704-8.244,21.497-19.451,21.497-25.397s-2.793-17.152-21.497-25.396c-11.519-5.077-26.636-7.873-42.567-7.873
	c-15.93,0-31.046,2.796-42.565,7.873C15.773,53.974,12.98,65.18,12.98,71.127S15.773,88.28,34.479,96.524z M77.045,55.857
	c28.125,0,46.064,10.026,46.064,15.27S105.17,86.397,77.045,86.397S30.98,76.37,30.98,71.127S48.919,55.857,77.045,55.857z
	 M63.831,272.532c0,4.971-4.029,9-9,9H34.336c-4.971,0-9-4.029-9-9s4.029-9,9-9h20.495
	C59.802,263.532,63.831,267.561,63.831,272.532z M322.124,293.366c0,4.971-4.017,9-8.988,9h-0.025c-4.971,0-9-4.029-9-9s4.029-9,9-9
	S322.124,288.395,322.124,293.366z M142.197,210.041h10.125c4.971,0,9,4.029,9,9s-4.029,9-9,9h-10.125c-4.971,0-9-4.029-9-9
	S137.227,210.041,142.197,210.041z M161.95,71.409c0-4.971,4.029-9,9-9h40.02c-0.533-0.64-1.052-1.262-1.557-1.866
	c-1.519-1.821-2.915-3.494-4.199-5.051c-3.163-3.835-2.619-9.507,1.215-12.67c3.834-3.164,9.506-2.619,12.669,1.215
	c1.265,1.533,2.639,3.181,4.135,4.974c1.818,2.179,3.814,4.57,6.007,7.229c2.329,2.822,4.667,5.741,7.262,8.989
	c1.39,1.739,2.03,3.836,1.964,5.899c0.036,1.137-0.142,2.283-0.542,3.375c-0.001,0.002-0.002,0.005-0.003,0.008
	c-0.002,0.006-0.004,0.012-0.007,0.018c-0.003,0.008-0.006,0.017-0.009,0.024c0,0.001,0,0.001,0,0.001
	c-0.344,0.923-0.836,1.773-1.446,2.524c-2.471,3.093-4.883,6.104-7.22,8.937c-2.206,2.676-4.212,5.079-6.039,7.269
	c-1.484,1.779-2.848,3.414-4.104,4.937c-1.78,2.156-4.354,3.271-6.947,3.271c-2.017,0-4.046-0.674-5.723-2.059
	c-3.834-3.163-4.377-8.836-1.214-12.67c1.275-1.545,2.66-3.205,4.167-5.011c0.366-0.438,0.74-0.887,1.121-1.344H170.95
	C165.979,80.409,161.95,76.38,161.95,71.409z M133.97,115.236c3.569,3.46,3.657,9.158,0.197,12.727
	c-10.452,10.781-32.34,17.479-57.122,17.479c-24.782,0-46.669-6.697-57.119-17.479c-3.459-3.569-3.371-9.267,0.199-12.727
	c3.57-3.459,9.268-3.369,12.726,0.199c5.605,5.783,21.826,12.007,44.194,12.007c22.369,0,38.592-6.225,44.199-12.008
	C124.704,111.865,130.402,111.778,133.97,115.236z M241.944,284.364h-51.966c-4.14-19.102-21.173-33.454-41.496-33.454
	c-19.179,0-35.427,12.78-40.676,30.272c-0.594-0.589-1.049-1.211-1.354-1.823c-0.349-0.702-0.525-1.424-0.525-2.144v-60.013
	c0-4.971-4.029-9-9-9s-9,4.029-9,9v60.013c0,3.522,0.809,6.938,2.408,10.158c3.197,6.42,9.146,11.232,16.358,13.518
	c3.563,19.832,20.946,34.93,41.789,34.93c20.324,0,37.359-14.354,41.497-33.457h51.965c4.971,0,9-4.029,9-9
	S246.915,284.364,241.944,284.364z M148.482,317.821c-13.44,0-24.383-10.897-24.457-24.32c0.002-0.112,0.002-0.224,0-0.336
	c0.107-13.394,11.037-24.255,24.456-24.255c13.485,0,24.457,10.971,24.457,24.456C172.938,306.85,161.967,317.821,148.482,317.821z
	 M63.831,240.208c0,4.971-4.029,9-9,9H9c-4.971,0-9-4.029-9-9s4.029-9,9-9h45.831C59.802,231.208,63.831,235.237,63.831,240.208z
	 M373.606,235.953c-0.574-25.424-6.372-30.561-27.942-49.672c-2.452-2.173-5.145-4.559-8.104-7.214
	c-1.968-1.766-3.943-3.652-6.034-5.65c-3.27-3.123-6.65-6.354-10.396-9.491c-2.895-2.425-5.635-4.732-8.241-6.927
	c-33.526-28.229-47.403-39.914-82.14-39.914h-62.132c-4.971,0-9,4.029-9,9c0,4.971,4.029,9,9,9h62.132
	c28.168,0,37.145,7.559,70.546,35.683c2.617,2.204,5.369,4.521,8.276,6.957c3.295,2.76,6.46,5.784,9.521,8.708
	c2.099,2.005,4.269,4.078,6.447,6.032c2.989,2.683,5.71,5.094,8.188,7.289c4.769,4.225,8.481,7.514,11.375,10.289h-127.84
	c-1.934-0.684-9.033-4.987-22.394-18.277c-10.607-10.552-17.926-19.53-19.15-21.724c-1.967-4.452-7.14-6.546-11.665-4.676
	c-4.594,1.896-6.781,7.158-4.884,11.753c2.579,6.247,16.599,21.078,23.651,28.048c23.148,22.876,30.712,22.876,33.942,22.876
	h138.456c0.23,2.333,0.319,5.03,0.394,8.317c0.107,4.704,0.061,14.784,0.027,22.145l-0.019,4.091
	c-0.02,4.073-0.043,8.738-0.043,14.62c0,1.394-0.672,2.743-1.8,3.887c-5.275-17.45-21.504-30.192-40.654-30.192
	c-23.411,0-42.457,19.046-42.457,42.456s19.046,42.455,42.457,42.455c20.863,0,38.259-15.122,41.8-34.98
	c10.912-3.544,18.653-12.863,18.653-23.625c0-5.846,0.023-10.482,0.043-14.53l0.019-4.099
	C373.674,250.707,373.719,240.9,373.606,235.953z M313.123,317.821c-13.485,0-24.457-10.971-24.457-24.455
	c0-13.485,10.971-24.456,24.457-24.456c13.417,0,24.346,10.859,24.458,24.249c-0.002,0.113-0.001,0.225,0,0.338
	C337.51,306.922,326.566,317.821,313.123,317.821z M157.493,293.366c0,4.971-4.029,9-9,9s-9.011-4.029-9.011-9s4.018-9,8.988-9
	h0.023C153.464,284.366,157.493,288.395,157.493,293.366z M134.167,169.799c-10.451,10.78-32.339,17.478-57.123,17.478
	s-46.671-6.697-57.119-17.479c-3.459-3.569-3.37-9.268,0.199-12.727c3.57-3.46,9.269-3.369,12.727,0.199
	c5.604,5.782,21.824,12.006,44.193,12.006c22.371,0,38.593-6.224,44.199-12.007c3.459-3.568,9.158-3.658,12.726-0.197
	C137.539,160.532,137.627,166.229,134.167,169.799z"/>
</svg>