<?xml version="1.0" ?>
<!-- Uploaded to: SVG Repo, www.svgrepo.com, Generator: SVG Repo Mixer Tools -->
<svg width="800px" height="800px" viewBox="0 0 20 20" xmlns="http://www.w3.org/2000/svg">
<g id="layer1">
<path d="M 0 2 L 0 18 L 20 18 L 20 17 L 1 17 L 1 2 L 0 2 z M 6.5488281 4.5019531 C 5.8458319 4.4323466 5.2057766 4.7268184 4.6699219 5.1386719 C 4.1340672 5.5505253 3.6774552 6.0906407 3.2929688 6.6289062 C 2.5239957 7.7054374 2.0429686 8.796875 2.0429688 8.796875 A 0.50083746 0.50083746 0 1 0 2.9570312 9.203125 C 2.9570312 9.203125 3.4099649 8.1873491 4.1074219 7.2109375 C 4.4561503 6.7227317 4.8650628 6.2519705 5.2792969 5.9335938 C 5.693531 5.6152169 6.087028 5.4619915 6.4511719 5.4980469 C 6.7808461 5.5306893 7.0467739 5.7517197 7.3339844 6.21875 C 7.6211948 6.6857803 7.8756137 7.357402 8.1230469 8.0585938 C 8.3704801 8.7597853 8.613127 9.4902642 8.9375 10.113281 C 9.261873 10.736298 9.6886499 11.303136 10.371094 11.484375 C 10.957313 11.640059 11.506032 11.533335 11.927734 11.298828 C 12.349437 11.064322 12.663555 10.73175 12.947266 10.427734 C 13.230976 10.123719 13.48603 9.8450289 13.722656 9.6796875 C 13.959282 9.5143461 14.140309 9.4487657 14.419922 9.4941406 C 14.675093 9.5355496 15.083852 9.7614187 15.501953 10.119141 C 15.920054 10.476862 16.354261 10.951262 16.738281 11.419922 C 17.506322 12.357241 18.076172 13.265625 18.076172 13.265625 A 0.50083746 0.50083746 0 1 0 18.923828 12.734375 C 18.923828 12.734375 18.327086 11.77828 17.511719 10.783203 C 17.104035 10.285664 16.642418 9.7770049 16.154297 9.359375 C 15.666176 8.9417451 15.15809 8.5996578 14.580078 8.5058594 C 14.026507 8.4160274 13.525924 8.5950194 13.150391 8.8574219 C 12.774857 9.1198244 12.487587 9.4518778 12.214844 9.7441406 C 11.9421 10.036403 11.685771 10.285986 11.441406 10.421875 C 11.197041 10.557764 10.983687 10.609845 10.628906 10.515625 C 10.37035 10.446959 10.094755 10.166253 9.8261719 9.6503906 C 9.5575887 9.134528 9.3169381 8.434582 9.0664062 7.7246094 C 8.8158746 7.0146367 8.5563158 6.2930874 8.1875 5.6933594 C 7.8186842 5.0936314 7.2862941 4.5749726 6.5488281 4.5019531 z " style="fill:#222222;fill-opacity:1;stroke:none;stroke-width:0px;"/>
</g>
</svg>