<?xml version='1.0' encoding='iso-8859-1'?>
<!DOCTYPE svg PUBLIC '-//W3C//DTD SVG 1.1//EN' 'http://www.w3.org/Graphics/SVG/1.1/DTD/svg11.dtd'>
<!-- Uploaded to: SVG Repo, www.svgrepo.com, Generator: SVG Repo Mixer Tools -->
<svg fill="#000000" height="800px" width="800px" version="1.1" xmlns="http://www.w3.org/2000/svg" viewBox="0 0 306.899 306.899" xmlns:xlink="http://www.w3.org/1999/xlink" enable-background="new 0 0 306.899 306.899">
  <g>
    <path d="m104.005,237.864h-25.708c-6.181,0-11.209,5.028-11.209,11.209v46.617c0,6.181 5.028,11.209 11.209,11.209h25.708c6.181,0 11.209-5.028 11.209-11.209v-46.617c0.001-6.181-5.027-11.209-11.209-11.209zm-.79,57.035h-24.127v-45.036h24.126v45.036z"/>
    <path d="m165.804,210.828h-25.708c-6.181,0-11.209,5.028-11.209,11.209v73.653c0,6.181 5.028,11.209 11.209,11.209h25.708c6.181,0 11.209-5.028 11.209-11.209v-73.653c0-6.181-5.029-11.209-11.209-11.209zm-.791,84.071h-24.126v-72.072h24.126v72.072z"/>
    <path d="m228.602,164.255h-25.708c-6.181,0-11.209,5.028-11.209,11.209v120.226c0,6.181 5.028,11.209 11.209,11.209h25.708c6.181,0 11.209-5.028 11.209-11.209v-120.226c0-6.181-5.028-11.209-11.209-11.209zm-.791,130.644h-24.126v-118.644h24.126v118.644z"/>
    <path d="m164.238,151.145c41.671,0 75.573-33.901 75.573-75.572s-33.902-75.573-75.573-75.573-75.572,33.902-75.572,75.573 33.901,75.572 75.572,75.572zm0-139.145c35.054,0 63.573,28.519 63.573,63.573 0,35.054-28.519,63.572-63.573,63.572-35.054,0-63.572-28.519-63.572-63.572 0-35.054 28.519-63.573 63.572-63.573z"/>
    <path d="m150.905,94.906c0-3.313-2.687-6-6-6s-6,2.687-6,6c0,11.901 8.252,21.907 19.333,24.609v6.224c0,3.313 2.686,6 6,6s6-2.687 6-6v-6.224c11.081-2.702 19.333-12.708 19.333-24.609s-8.252-21.907-19.333-24.609v-25.949c4.343,2.201 7.333,6.698 7.333,11.891 0,3.313 2.687,6 6,6s6-2.687 6-6c0-11.902-8.252-21.907-19.333-24.609v-6.224c0-3.313-2.686-6-6-6s-6,2.687-6,6v6.224c-11.081,2.702-19.333,12.708-19.333,24.609s8.252,21.907 19.333,24.609v25.948c-4.343-2.2-7.333-6.698-7.333-11.89zm26.667,0c0,5.193-2.99,9.69-7.333,11.891v-23.782c4.342,2.201 7.333,6.698 7.333,11.891zm-26.667-38.667c0-5.193 2.99-9.69 7.333-11.891v23.782c-4.343-2.201-7.333-6.698-7.333-11.891z"/>
    <path d="m93.252,218.381c0.972,0 1.957-0.236 2.87-0.735l53.919-29.438-2.647,9.013c-0.934,3.18 0.887,6.514 4.066,7.448 0.564,0.166 1.134,0.245 1.693,0.245 2.594,0 4.986-1.696 5.754-4.311l6.729-22.911c0.448-1.527 0.272-3.169-0.491-4.566-0.762-1.397-2.049-2.434-3.576-2.882l-22.911-6.729c-3.181-0.935-6.514,0.887-7.448,4.066s0.887,6.514 4.066,7.447l9.012,2.647-53.919,29.438c-2.909,1.588-3.979,5.233-2.391,8.141 1.092,1.997 3.15,3.127 5.274,3.127z"/>
  </g>
</svg>